<svg width="24" height="24" viewBox="0 0 24 24" fill="none" xmlns="http://www.w3.org/2000/svg">
<g clip-path="url(#clip0_1707_601)">
<path d="M24 4.55899C23.1167 4.9504 22.1689 5.21585 21.1731 5.33436C22.1899 4.72546 22.9682 3.75966 23.3371 2.61236C22.3833 3.17625 21.3305 3.5857 20.2087 3.80766C19.3104 2.84934 18.0326 2.25244 16.6154 2.25244C13.8964 2.25244 11.6918 4.45703 11.6918 7.17452C11.6918 7.55993 11.7353 7.93636 11.8193 8.29632C7.72807 8.09083 4.10026 6.13071 1.67222 3.15224C1.24779 3.87813 1.00634 4.72393 1.00634 5.62679C1.00634 7.33499 1.87618 8.8422 3.19595 9.72401C2.38908 9.69703 1.63022 9.47507 0.965866 9.10613V9.16762C0.965866 11.5522 2.66355 13.5423 4.91461 13.9952C4.50218 14.1062 4.06728 14.1677 3.61736 14.1677C3.29944 14.1677 2.99199 14.1362 2.69053 14.0762C3.3174 16.0333 5.13508 17.4566 7.28869 17.4956C5.6045 18.8153 3.48089 19.5997 1.17434 19.5997C0.776924 19.5997 0.385473 19.5757 6.10352e-05 19.5322C2.17916 20.9315 4.76618 21.7473 7.54666 21.7473C16.6034 21.7473 21.554 14.2457 21.554 7.73993L21.5375 7.10256C22.5048 6.41264 23.3417 5.54581 24 4.55899Z" fill="#A3A3A3"/>
</g>
<defs>
<clipPath id="clip0_1707_601">
<rect width="24" height="24" fill="white"/>
</clipPath>
</defs>
</svg>
